<?xml version="1.0" encoding="UTF-8" standalone="no"?>
<!DOCTYPE svg PUBLIC "-//W3C//DTD SVG 1.1//EN" "http://www.w3.org/Graphics/SVG/1.1/DTD/svg11.dtd">
<svg width="100%" height="100%" viewBox="0 0 945 945" version="1.1" xmlns="http://www.w3.org/2000/svg" xmlns:xlink="http://www.w3.org/1999/xlink" xml:space="preserve" xmlns:serif="http://www.serif.com/" style="fill-rule:evenodd;clip-rule:evenodd;stroke-linejoin:round;stroke-miterlimit:2;">
    <g transform="matrix(1.84547,0,0,1.84547,472.441,472.441)">
        <g id="twitter" transform="matrix(1,0,0,1,-256,-256)">
            <path d="M10.091,418.027C57.493,448.107 112.661,464 169.621,464C253.035,464 329.472,431.957 384.875,373.781C437.888,318.101 467.051,243.285 465.6,167.36C485.696,150.165 509.333,117.333 509.333,85.333C509.333,73.067 496.021,65.28 485.227,71.531C466.347,82.624 449.131,85.525 431.424,80.555C395.264,45.312 341.44,37.888 296.085,62.336C256.448,83.669 234.411,122.709 236.395,165.376C169.429,157.205 107.563,123.627 64.427,71.445C57.344,62.933 43.904,63.936 38.272,73.579C17.493,109.163 17.707,150.4 35.776,183.701C27.179,185.216 21.867,192.448 21.867,200.277C21.867,233.749 36.928,264.512 61.184,285.504C56.661,289.856 55.168,296.32 57.088,302.08C67.755,334.123 91.904,359.168 122.091,371.712C89.259,387.392 52.949,392.619 20.629,388.651C3.904,386.389 -4.352,408.875 10.091,418.027ZM173.995,377.195C185.963,368 179.605,348.843 164.587,348.523C138.133,347.968 114.048,334.933 99.051,314.432C106.283,313.963 113.771,312.853 120.896,310.933C137.131,306.539 136.363,283.115 119.872,279.808C89.941,273.792 66.453,251.989 57.643,223.915C65.685,225.899 73.877,227.008 82.048,227.157C98.24,227.243 104.363,206.485 91.157,197.803C61.397,178.197 48.704,143.573 57.109,111.019C109.077,163.669 179.584,195.392 254.165,198.976C264.853,199.637 272.875,189.589 270.528,179.413C260.395,135.488 284.928,104.704 311.275,90.517C337.344,76.437 379.2,72.043 411.285,105.707C420.821,115.755 452.992,116.139 469.355,112.32C462.016,126.144 450.731,139.264 440.171,146.645C435.669,149.803 433.088,155.051 433.365,160.533C436.8,230.613 410.688,300.288 361.728,351.68C312.405,403.456 244.203,431.979 169.643,431.979C139.989,431.979 110.912,427.157 83.435,417.856C116.288,411.499 147.499,397.589 173.995,377.195Z" style="fill:rgb(29,161,242);fill-rule:nonzero;"/>
        </g>
        <g id="twitter1" serif:id="twitter">
        </g>
    </g>
</svg>
