<?xml version="1.0" encoding="UTF-8" standalone="no"?>
<!DOCTYPE svg PUBLIC "-//W3C//DTD SVG 1.1//EN" "http://www.w3.org/Graphics/SVG/1.1/DTD/svg11.dtd">
<svg width="100%" height="100%" viewBox="0 0 591 591" version="1.1" xmlns="http://www.w3.org/2000/svg" xmlns:xlink="http://www.w3.org/1999/xlink" xml:space="preserve" xmlns:serif="http://www.serif.com/" style="fill-rule:evenodd;clip-rule:evenodd;stroke-linejoin:round;stroke-miterlimit:2;">
    <g transform="matrix(3.25502,0,0,3.25502,-700.317,-383.04)">
        <path d="M318.553,195.733C318.553,195.288 318.376,194.86 318.061,194.545C317.746,194.23 317.319,194.053 316.874,194.053L299.659,194.053C296.673,194.053 293.935,192.397 292.549,189.752C291.163,187.108 291.359,183.913 293.058,181.458C304.009,165.631 322.56,138.823 332.408,124.591C333.907,122.424 336.374,121.131 339.009,121.131C341.644,121.131 344.111,122.424 345.61,124.591C355.459,138.823 374.009,165.631 384.961,181.458C386.659,183.913 386.856,187.108 385.47,189.752C384.084,192.397 381.345,194.053 378.359,194.053L361.145,194.053C360.699,194.053 360.272,194.23 359.957,194.545C359.642,194.86 359.465,195.288 359.465,195.733C359.465,208.41 359.465,288.574 359.465,288.574C359.465,292.275 356.465,295.276 352.764,295.276C345.166,295.276 332.852,295.276 325.254,295.276C321.553,295.276 318.553,292.275 318.553,288.574L318.553,195.733Z"/>
    </g>
    <g transform="matrix(2.99247,0,0,2.99247,-363.003,-67.8133)">
        <path d="M183.335,147.119C183.335,147.242 183.286,147.36 183.199,147.447C183.112,147.534 182.994,147.583 182.871,147.583C181.349,147.583 176.517,147.583 174.995,147.583C174.872,147.583 174.754,147.534 174.667,147.447C174.58,147.36 174.531,147.242 174.531,147.119C174.531,142.69 174.531,107.932 174.531,103.503C174.531,103.246 174.323,103.039 174.067,103.039C172.298,103.039 165.982,103.039 164.212,103.039C164.089,103.039 163.971,102.99 163.884,102.903C163.797,102.816 163.748,102.698 163.748,102.575C163.748,101.364 163.748,98.121 163.748,96.959C163.748,96.72 163.93,96.52 164.168,96.497C166.713,96.256 180.048,94.991 182.827,94.727C182.957,94.715 183.086,94.758 183.183,94.846C183.28,94.934 183.335,95.058 183.335,95.189C183.335,100.301 183.335,142.234 183.335,147.119Z" style="fill-rule:nonzero;"/>
    </g>
    <g transform="matrix(2.99247,0,0,2.99247,-729.115,-641.348)">
        <path d="M287.001,354.479C287.001,354.308 287.07,354.143 287.191,354.021C287.313,353.9 287.477,353.832 287.649,353.832L295.238,353.832C295.41,353.832 295.575,353.9 295.696,354.021C295.818,354.143 295.886,354.308 295.886,354.479L295.886,389.289C295.886,395.078 294.008,399.56 290.252,402.737C290.252,402.737 290.252,402.737 290.252,402.737C286.497,405.914 281.482,407.502 275.209,407.502C275.209,407.502 275.209,407.502 275.209,407.502C268.936,407.502 263.955,405.907 260.267,402.717C260.267,402.717 260.267,402.717 260.267,402.717C256.578,399.527 254.734,395.051 254.734,389.289L254.734,354.479C254.734,354.308 254.802,354.143 254.924,354.021C255.045,353.9 255.21,353.832 255.382,353.832C257.011,353.832 261.262,353.832 262.89,353.832C263.062,353.832 263.227,353.9 263.348,354.021C263.47,354.143 263.538,354.308 263.538,354.479L263.538,389.289C263.538,392.951 264.554,395.724 266.587,397.608C266.587,397.608 266.587,397.608 266.587,397.608C268.62,399.493 271.48,400.435 275.169,400.435C275.169,400.435 275.169,400.435 275.169,400.435C278.857,400.435 281.751,399.493 283.851,397.608C283.851,397.608 283.851,397.608 283.851,397.608C285.951,395.724 287.001,392.951 287.001,389.289L287.001,354.479ZM327.022,386.583L315.838,386.583C315.48,386.583 315.19,386.873 315.19,387.231C315.19,390.257 315.19,402.98 315.19,406.007C315.19,406.364 314.9,406.654 314.542,406.654C312.907,406.654 308.628,406.654 306.993,406.654C306.822,406.654 306.657,406.586 306.535,406.465C306.414,406.343 306.345,406.178 306.345,406.007L306.345,354.399C306.345,354.227 306.414,354.062 306.535,353.941C306.657,353.819 306.822,353.751 306.993,353.751L327.022,353.751C332.838,353.751 337.408,355.238 340.733,358.213C340.733,358.213 340.733,358.213 340.733,358.213C344.058,361.188 345.72,365.18 345.72,370.187C345.72,370.187 345.72,370.187 345.72,370.187C345.72,375.195 344.064,379.18 340.753,382.141C340.753,382.141 340.753,382.141 340.753,382.141C337.441,385.103 332.865,386.583 327.022,386.583ZM315.838,360.818C315.48,360.818 315.19,361.108 315.19,361.466C315.19,364.348 315.19,375.987 315.19,378.868C315.19,379.226 315.48,379.516 315.838,379.516L327.022,379.516C330.226,379.516 332.669,378.668 334.352,376.972C334.352,376.972 334.352,376.972 334.352,376.972C336.035,375.276 336.876,373.021 336.876,370.207C336.876,370.207 336.876,370.207 336.876,370.207C336.876,367.394 336.028,365.126 334.332,363.403C334.332,363.403 334.332,363.403 334.332,363.403C332.636,361.68 330.199,360.818 327.022,360.818L315.838,360.818Z"/>
    </g>
</svg>
