<?xml version="1.0" encoding="UTF-8" standalone="no"?>
<!DOCTYPE svg PUBLIC "-//W3C//DTD SVG 1.1//EN" "http://www.w3.org/Graphics/SVG/1.1/DTD/svg11.dtd">
<svg width="100%" height="100%" viewBox="0 0 591 591" version="1.1" xmlns="http://www.w3.org/2000/svg" xmlns:xlink="http://www.w3.org/1999/xlink" xml:space="preserve" xmlns:serif="http://www.serif.com/" style="fill-rule:evenodd;clip-rule:evenodd;stroke-linejoin:round;stroke-miterlimit:2;">
    <g transform="matrix(1.4093,0,0,1.4093,-24.1331,-132.588)">
        <path d="M265.527,344.951C256.768,349.858 246.088,349.858 237.33,344.951C215.851,332.913 175.126,310.087 153.271,297.839C144.169,292.737 138.533,283.118 138.533,272.684L138.533,179.929C138.533,169.495 144.169,159.876 153.271,154.775C175.126,142.526 215.851,119.701 237.33,107.663C246.088,102.755 256.768,102.755 265.527,107.663C287.006,119.701 327.732,142.526 349.585,154.775C358.688,159.876 364.322,169.495 364.322,179.929L364.322,272.684C364.322,283.118 358.688,292.737 349.585,297.839C327.732,310.087 287.006,332.913 265.527,344.951Z" style="fill:rgb(82,159,255);"/>
    </g>
    <g transform="matrix(2.2984,0,0,2.2984,-225.1,-144.247)">
        <path d="M307.084,104.519C309.471,107.577 310.827,111.39 310.827,115.399L310.827,172.273C310.827,178.67 307.373,184.569 301.791,187.697C288.392,195.207 263.42,209.203 250.25,216.585C244.879,219.593 238.33,219.593 232.961,216.585L191.846,193.542L307.084,104.519Z" style="fill:rgb(113,176,254);"/>
    </g>
    <g transform="matrix(0.985958,0,0,0.985958,-61.2085,222.71)">
        <path d="M265.527,344.951C256.768,349.858 246.088,349.858 237.33,344.951C215.851,332.913 175.126,310.087 153.271,297.839C144.169,292.737 138.533,283.118 138.533,272.684L138.533,179.929C138.533,169.495 144.169,159.876 153.271,154.775C175.126,142.526 215.851,119.701 237.33,107.663C246.088,102.755 256.768,102.755 265.527,107.663C287.006,119.701 327.732,142.526 349.585,154.775C358.688,159.876 364.322,169.495 364.322,179.929L364.322,272.684C364.322,283.118 358.688,292.737 349.585,297.839C327.732,310.087 287.006,332.913 265.527,344.951Z" style="fill:rgb(255,173,82);"/>
    </g>
    <g transform="matrix(2.2984,0,0,2.2984,-225.1,-144.247)">
        <path d="M226.835,232.579C227.329,233.925 227.592,235.365 227.592,236.843L227.592,276.633C227.592,281.109 225.176,285.236 221.271,287.424C211.896,292.678 194.426,302.47 185.212,307.634C181.454,309.739 176.873,309.739 173.116,307.634L153.823,296.821L226.835,232.579Z" style="fill:rgb(249,189,123);"/>
    </g>
    <g transform="matrix(0.718076,0,0,0.718076,253.561,267.121)">
        <path d="M265.527,344.951C256.768,349.858 246.088,349.858 237.33,344.951C215.851,332.913 175.126,310.087 153.271,297.839C144.169,292.737 138.533,283.118 138.533,272.684L138.533,179.929C138.533,169.495 144.169,159.876 153.271,154.775C175.126,142.526 215.851,119.701 237.33,107.663C246.088,102.755 256.768,102.755 265.527,107.663C287.006,119.701 327.732,142.526 349.585,154.775C358.688,159.876 364.322,169.495 364.322,179.929L364.322,272.684C364.322,283.118 358.688,292.737 349.585,297.839C327.732,310.087 287.006,332.913 265.527,344.951Z" style="fill:rgb(211,211,211);"/>
    </g>
    <g transform="matrix(2.2984,0,0,2.2984,-225.1,-144.247)">
        <path d="M322.082,235.797L322.082,264.174C322.082,267.434 320.322,270.439 317.478,272.033C310.651,275.86 297.926,282.991 291.216,286.752C288.48,288.285 285.143,288.285 282.407,286.752L271.433,280.602L322.082,235.797Z" style="fill:rgb(228,228,228);"/>
    </g>
</svg>
