<?xml version="1.0" encoding="UTF-8" standalone="no"?>
<!DOCTYPE svg PUBLIC "-//W3C//DTD SVG 1.1//EN" "http://www.w3.org/Graphics/SVG/1.1/DTD/svg11.dtd">
<svg width="100%" height="100%" viewBox="0 0 591 119" version="1.1" xmlns="http://www.w3.org/2000/svg" xmlns:xlink="http://www.w3.org/1999/xlink" xml:space="preserve" xmlns:serif="http://www.serif.com/" style="fill-rule:evenodd;clip-rule:evenodd;stroke-linejoin:round;stroke-miterlimit:2;">
    <g transform="matrix(1,0,0,1,0,-21.0673)">
        <path d="M461.59,70.831C465.871,50.692 483.77,35.566 505.174,35.566C529.766,35.566 549.73,55.531 549.73,80.122C549.73,104.714 529.766,124.678 505.174,124.678C483.77,124.678 465.871,109.553 461.59,89.414L128.961,89.414C124.68,109.553 106.781,124.678 85.377,124.678C60.786,124.678 40.821,104.714 40.821,80.122C40.821,55.531 60.786,35.566 85.377,35.566C106.781,35.566 124.68,50.692 128.961,70.831L461.59,70.831ZM89.818,98.909L83.566,98.909L83.566,67.273L75.907,67.273L75.907,62.655L89.818,61.335L89.818,98.909ZM517.937,93.861L517.937,98.909L492.983,98.909L492.983,94.607L505.23,81.241C507.2,79.08 508.567,77.297 509.332,75.892C510.097,74.486 510.479,73.014 510.479,71.475C510.479,69.935 509.987,68.606 509.002,67.488C508.017,66.369 506.693,65.81 505.03,65.81C502.869,65.81 501.248,66.417 500.168,67.631C499.088,68.845 498.547,70.562 498.547,72.78L492.467,72.78L492.409,72.636C492.333,69.194 493.442,66.355 495.737,64.118C498.031,61.88 501.052,60.762 504.8,60.762C508.548,60.762 511.478,61.747 513.591,63.716C515.704,65.686 516.761,68.305 516.761,71.575C516.761,73.621 516.201,75.595 515.083,77.498C513.964,79.401 512.038,81.863 509.303,84.884L500.928,93.718L501.014,93.861L517.937,93.861Z"/>
    </g>
</svg>
