<?xml version="1.0" encoding="UTF-8" standalone="no"?>
<!DOCTYPE svg PUBLIC "-//W3C//DTD SVG 1.1//EN" "http://www.w3.org/Graphics/SVG/1.1/DTD/svg11.dtd">
<svg width="100%" height="100%" viewBox="0 0 1418 1418" version="1.1" xmlns="http://www.w3.org/2000/svg" xmlns:xlink="http://www.w3.org/1999/xlink" xml:space="preserve" xmlns:serif="http://www.serif.com/" style="fill-rule:evenodd;clip-rule:evenodd;stroke-linejoin:round;stroke-miterlimit:2;">
    <g transform="matrix(1.73001,0,0,1.73001,-531.516,-400.261)">
        <path d="M497.907,660.587L497.295,966.016L749.857,1050.62L749.857,745.666L497.907,660.587Z" style="fill:rgb(210,153,153);"/>
    </g>
    <g transform="matrix(-1.73001,0,0,1.73001,2063,-400.261)">
        <path d="M497.907,660.587L497.295,966.016L749.857,1050.62L749.857,745.666L497.907,660.587Z" style="fill:rgb(187,127,127);"/>
    </g>
    <g transform="matrix(1.73001,0,0,1.73001,-531.516,-400.261)">
        <path d="M749.857,575.813L749.857,745.36L497.295,660.587L749.857,575.813Z" style="fill:rgb(174,120,120);"/>
    </g>
    <g transform="matrix(-1.73001,0,0,1.73001,2063,-400.261)">
        <path d="M749.857,575.813L749.857,745.36L497.295,660.587L749.857,575.813Z" style="fill:rgb(159,105,105);"/>
    </g>
    <g transform="matrix(1.73001,0,0,1.73001,-531.516,-400.261)">
        <path d="M497.295,660.587L415.735,793.562L683.827,882.619L749.857,745.36L497.295,660.587Z" style="fill:rgb(229,178,178);"/>
    </g>
    <g transform="matrix(-1.73001,0,0,1.73001,2063,-400.261)">
        <path d="M497.295,660.587L415.735,793.562L683.827,882.619L749.857,745.36L497.295,660.587Z" style="fill:rgb(211,152,152);"/>
    </g>
    <g id="donation" transform="matrix(2.31636,0,0,2.31636,666.536,592.987)">
        <g transform="matrix(1,0,0,1,-256,-256)">
            <g id="filled_outline">
                <path d="M214.174,232.919L195.474,236.1C194.363,236.289 193.239,236.384 192.112,236.384C181.109,236.384 172.056,227.33 172.056,216.328C172.056,216.23 172.057,216.132 172.058,216.034C172.2,206.406 179.256,198.172 188.749,196.557L214.775,192.131L214.174,232.919Z" style="fill:rgb(157,131,114);fill-rule:nonzero;"/>
                <path d="M254.962,233.517L224,238.782C217.029,239.968 209.988,236.869 206.153,230.929C204.305,228.066 203.321,224.73 203.321,221.322C203.321,213.878 208.014,207.193 215.016,204.665L265.062,186.593L254.962,233.517Z" style="fill:rgb(157,131,114);fill-rule:nonzero;"/>
                <path d="M220.91,203.636L227.645,172.353L305.853,189.191L313.853,152.042C316.236,140.973 313.262,129.405 305.837,120.857L276.215,86.757C269.225,78.709 259.008,74.167 248.35,74.37L125.487,76.709L24,26.116L24,146.116L87.956,175.011L101.165,191.211C113.565,206.42 130.781,216.963 149.965,221.094C166.212,224.592 183.175,222.456 198.047,215.038L220.91,203.636Z" style="fill:rgb(245,211,189);fill-rule:nonzero;"/>
                <g>
                    <path d="M298.8,212.653L294.591,232.205C292.615,241.384 284.428,247.996 275.039,247.996C273.624,247.996 272.212,247.846 270.829,247.548C261.65,245.572 255.039,237.385 255.039,227.996C255.039,226.581 255.189,225.17 255.487,223.786L259.696,204.234L298.8,212.653Z" style="fill:rgb(189,161,143);fill-rule:nonzero;"/>
                    <path d="M271.808,165.312C267.415,165.308 263.802,161.692 263.802,157.299C263.802,156.737 263.862,156.176 263.979,155.626L267.347,139.984C268.138,136.312 271.412,133.668 275.168,133.668C279.557,133.668 283.168,137.279 283.168,141.668C283.168,142.234 283.108,142.799 282.989,143.352L279.621,158.993C278.832,162.663 275.562,165.308 271.808,165.312Z" style="fill:rgb(189,161,143);fill-rule:nonzero;"/>
                    <path d="M252.1,169.782C248.821,169.783 245.859,167.768 244.656,164.718L230.307,128.365C229.938,127.43 229.748,126.433 229.748,125.428C229.748,121.039 233.36,117.427 237.749,117.427C241.026,117.427 243.987,119.441 245.19,122.49L259.539,158.843C259.909,159.779 260.098,160.776 260.098,161.782C260.098,166.17 256.488,169.781 252.1,169.782Z" style="fill:rgb(189,161,143);fill-rule:nonzero;"/>
                </g>
                <g transform="matrix(1.66355,0,0,1.67588,-223.556,-155.975)">
                    <path d="M371.8,247.8L314,305.6L256.2,247.8C250.951,242.551 247.999,235.423 248,228C248,212.64 260.64,200 276,200C283.423,199.999 290.551,202.951 295.8,208.2L314,226.4L332.2,208.2C337.449,202.951 344.577,199.999 352,200C367.36,200 380,212.64 380,228C380.001,235.423 377.049,242.551 371.8,247.8Z" style="fill:rgb(241,100,101);fill-rule:nonzero;"/>
                </g>
                <path d="M295.653,220.031L226.153,220.281L191.153,239.032C191.153,239.032 183.403,216.281 197.403,203.031C211.403,189.781 269.403,200.031 269.403,200.031L287.153,210.031L295.653,220.031Z" style="fill:rgb(187,88,89);"/>
                <path d="M151.608,221.449C166.793,224.718 182.647,222.721 196.547,215.788L220.91,203.636L285.879,211.563C298.692,213.126 310.727,204.558 313.444,191.939C313.818,190.203 314.006,188.433 314.006,186.657C314.006,174.88 305.713,164.611 294.2,162.132L232.7,148.891L170.13,135.42L151.608,221.449Z" style="fill:rgb(245,211,189);fill-rule:nonzero;"/>
            </g>
        </g>
    </g>
    <g transform="matrix(1.73001,0,0,1.73001,-531.516,-400.261)">
        <path d="M749.857,745.36L775.487,916.896L1002.42,835.367L1002.42,821.411L816.618,882.619L749.857,745.36Z" style="fill:rgb(174,106,106);"/>
    </g>
    <g transform="matrix(-1.73001,0,0,1.73001,2063,-400.261)">
        <path d="M749.857,745.36L775.487,916.896L1002.42,835.367L1002.42,821.411L816.618,882.619L749.857,745.36Z" style="fill:rgb(189,135,135);"/>
    </g>
</svg>
