<?xml version="1.0" encoding="UTF-8" standalone="no"?>
<!DOCTYPE svg PUBLIC "-//W3C//DTD SVG 1.1//EN" "http://www.w3.org/Graphics/SVG/1.1/DTD/svg11.dtd">
<svg width="100%" height="100%" viewBox="0 0 591 591" version="1.1" xmlns="http://www.w3.org/2000/svg" xmlns:xlink="http://www.w3.org/1999/xlink" xml:space="preserve" xmlns:serif="http://www.serif.com/" style="fill-rule:evenodd;clip-rule:evenodd;stroke-linejoin:round;stroke-miterlimit:2;">
    <path d="M321.297,514.256C305.133,523.313 285.421,523.313 269.257,514.256C229.612,492.036 154.445,449.908 114.109,427.301C97.31,417.886 86.907,400.131 86.907,380.874L86.907,209.676C86.907,190.419 97.31,172.664 114.109,163.249C154.445,140.642 229.612,98.515 269.257,76.296C285.421,67.238 305.133,67.238 321.297,76.296C360.941,98.515 436.11,140.642 476.444,163.249C493.245,172.664 503.644,190.419 503.644,209.676L503.644,380.874C503.644,400.131 493.245,417.886 476.444,427.301C436.11,449.908 360.941,492.036 321.297,514.256Z" style="fill:white;"/>
</svg>
