<?xml version="1.0" encoding="UTF-8" standalone="no"?>
<!DOCTYPE svg PUBLIC "-//W3C//DTD SVG 1.1//EN" "http://www.w3.org/Graphics/SVG/1.1/DTD/svg11.dtd">
<svg width="100%" height="100%" viewBox="0 0 945 945" version="1.1" xmlns="http://www.w3.org/2000/svg" xmlns:xlink="http://www.w3.org/1999/xlink" xml:space="preserve" xmlns:serif="http://www.serif.com/" style="fill-rule:evenodd;clip-rule:evenodd;stroke-linejoin:round;stroke-miterlimit:2;">
    <g transform="matrix(0.700312,0,0,0.700312,-48.7946,41.0366)">
        <path d="M799.164,1077.82C765.076,1096.92 723.506,1096.92 689.418,1077.82C605.813,1030.96 447.296,942.118 362.231,894.443C326.804,874.588 304.867,837.145 304.867,796.534L304.867,435.501C304.867,394.89 326.804,357.447 362.231,337.592C447.296,289.917 605.813,201.076 689.418,154.22C723.506,135.116 765.076,135.116 799.164,154.22C882.769,201.076 1041.29,289.917 1126.35,337.592C1161.78,357.447 1183.71,394.89 1183.71,435.501L1183.71,796.534C1183.71,837.145 1161.78,874.588 1126.35,894.443C1041.29,942.118 882.769,1030.96 799.164,1077.82ZM972.53,594.547C993.257,572.005 1004.91,541.4 1004.91,509.523C1004.91,443.563 954.999,389.287 894.344,389.287C865.031,389.285 836.887,401.96 816.158,424.499L744.291,502.652L672.423,424.499C651.694,401.96 623.551,389.285 594.237,389.287C533.583,389.287 483.672,443.563 483.672,509.523C483.67,541.4 495.325,572.005 516.052,594.547L744.291,842.748L972.53,594.547Z" style="fill:rgb(255,82,82);"/>
    </g>
</svg>
