<?xml version="1.0" encoding="UTF-8" standalone="no"?>
<!DOCTYPE svg PUBLIC "-//W3C//DTD SVG 1.1//EN" "http://www.w3.org/Graphics/SVG/1.1/DTD/svg11.dtd">
<svg width="100%" height="100%" viewBox="0 0 30000 30000" version="1.1" xmlns="http://www.w3.org/2000/svg" xmlns:xlink="http://www.w3.org/1999/xlink" xml:space="preserve" xmlns:serif="http://www.serif.com/" style="fill-rule:evenodd;clip-rule:evenodd;stroke-linejoin:round;stroke-miterlimit:2;">
    <g transform="matrix(21.6595,0,0,21.6595,-1503.26,1057.35)">
        <g transform="matrix(0.0624533,0,0,0.0624533,-174.857,-236.761)">
            <path d="M16188.6,23989.7C15450.2,24403.4 14549.8,24403.4 13811.5,23989.7C12000.7,22974.8 8567.28,21050.5 6724.81,20017.9C5957.48,19587.8 5482.34,18776.8 5482.34,17897.2L5482.34,10077.4C5482.34,9197.81 5957.48,8386.82 6724.81,7956.77C8567.28,6924.15 12000.7,4999.9 13811.5,3985.02C14549.8,3571.24 15450.2,3571.24 16188.6,3985.02C17999.4,4999.9 21432.9,6924.15 23275.2,7956.77C24042.6,8386.82 24517.6,9197.81 24517.6,10077.4L24517.6,17897.2C24517.6,18776.8 24042.6,19587.8 23275.2,20017.9C21432.9,21050.5 17999.4,22974.8 16188.6,23989.7ZM15000,11992.9C16010.5,10552.9 18031.6,10552.9 19042.1,11272.9C20052.7,11992.9 20052.7,13432.9 19042.1,14872.9C18477.8,15734.5 17206,16596.1 15945.1,17275C15355.2,17593.1 14644.8,17593.1 14054.9,17275C12794,16596.1 11522.2,15734.5 10957.9,14872.9C9947.37,13432.9 9947.37,11992.9 10957.9,11272.9C11968.4,10552.9 13989.5,10552.9 15000,11992.9Z" style="fill:rgb(255,82,82);"/>
        </g>
        <g transform="matrix(0.0461691,0,0,0.0461691,69.4044,-48.817)">
            <path d="M27176.6,7535.19C27621.6,8104.3 27874.6,8814.39 27874.6,9561.03L27874.6,20138.9C27874.6,21328.8 27232.1,22425.8 26194,23007.5C23701.8,24404.4 19057.3,27007.3 16607.8,28380.3C15609.1,28939.9 14391.1,28939.9 13392.4,28380.3C10942.8,27007.3 6298.44,24404.4 3806.12,23007.5C3262.53,22702.9 2827.35,22256.9 2536.11,21730.3L10505.5,17139.2C11375.6,17921.6 12552.1,18667.5 13721.6,19297.2C14519.6,19727.5 15480.5,19727.5 16278.4,19297.2C17984.1,18378.9 19704.4,17213.4 20467.8,16047.9C21777.7,14181.5 21832.4,12315 20632.1,11305.4L27176.6,7535.19Z" style="fill:rgb(217,104,148);fill-opacity:0.62;"/>
        </g>
    </g>
</svg>
