<?xml version="1.0" encoding="UTF-8" standalone="no"?>
<!DOCTYPE svg PUBLIC "-//W3C//DTD SVG 1.1//EN" "http://www.w3.org/Graphics/SVG/1.1/DTD/svg11.dtd">
<svg width="100%" height="100%" viewBox="0 0 296 296" version="1.1" xmlns="http://www.w3.org/2000/svg" xmlns:xlink="http://www.w3.org/1999/xlink" xml:space="preserve" xmlns:serif="http://www.serif.com/" style="fill-rule:evenodd;clip-rule:evenodd;stroke-linejoin:round;stroke-miterlimit:2;">
    <g transform="matrix(0.430382,0,0,0.430382,-55.6921,-59.825)">
        <path d="M503.615,816.942C484.249,827.796 460.632,827.796 441.267,816.942C381.534,783.465 251.492,710.583 190.667,676.494C170.541,665.214 158.077,643.942 158.077,620.87L158.077,343.217C158.077,320.145 170.541,298.873 190.667,287.593C251.492,253.504 381.534,180.622 441.267,147.145C460.632,136.291 484.249,136.291 503.615,147.145C563.348,180.622 693.39,253.504 754.215,287.593C774.341,298.873 786.804,320.145 786.804,343.217L786.804,620.87C786.804,643.942 774.341,665.214 754.215,676.494C693.39,710.583 563.348,783.465 503.615,816.942Z" style="fill:rgb(117,198,231);"/>
    </g>
    <g transform="matrix(0.430382,0,0,0.430382,-55.6921,-59.825)">
        <path d="M786.751,340.625C786.786,341.485 786.804,342.349 786.804,343.217L786.804,620.87C786.804,643.942 774.341,665.214 754.215,676.494C693.39,710.583 563.348,783.465 503.615,816.942C484.249,827.796 460.632,827.796 441.267,816.942C381.534,783.465 251.492,710.583 190.667,676.494C179.62,670.302 170.881,661.1 165.245,650.241C499.72,601.691 696.984,437.277 786.751,340.625Z" style="fill:rgb(104,175,204);"/>
    </g>
    <g id="Shape" transform="matrix(0.608499,0,0,0.608499,-8.13792,72.4357)">
        <path d="M185.309,114.759C175.007,114.893 164.931,111.735 156.548,105.746C131.778,88.046 125.29,49.311 123.639,27.789C123.27,22.927 124.939,18.13 128.247,14.548C131.623,10.906 136.363,8.833 141.33,8.828L185.379,8.828L185.379,26.483L141.33,26.483C142.389,41.26 147.165,77.321 166.806,91.348C176.023,97.439 187.545,98.907 197.994,95.32L202.408,112.41C196.831,113.916 191.085,114.705 185.309,114.759Z" style="fill:rgb(242,156,31);fill-rule:nonzero;"/>
    </g>
    <g id="Shape1" serif:id="Shape" transform="matrix(0.608499,0,0,0.608499,-8.13792,72.4357)">
        <path d="M326.691,114.759C322.662,114.744 318.642,114.351 314.686,113.585L317.97,96.221C327.69,98.672 337.997,96.649 346.068,90.703C365.003,76.2 369.638,40.916 370.785,26.421L326.621,26.483L326.621,8.828L370.67,8.828C375.634,8.829 380.373,10.895 383.753,14.53C387.06,18.113 388.729,22.91 388.361,27.772C386.754,48.711 380.504,86.563 356.802,104.713C348.184,111.36 337.574,114.9 326.691,114.759Z" style="fill:rgb(242,156,31);fill-rule:nonzero;"/>
    </g>
    <g id="Rectangle-path" transform="matrix(0.608499,0,0,0.608499,-8.13792,72.4357)">
        <rect x="238.345" y="150.069" width="35.31" height="53.319" style="fill:rgb(242,156,31);fill-rule:nonzero;"/>
    </g>
    <g id="Shape2" serif:id="Shape" transform="matrix(0.608499,0,0,0.608499,-8.13792,72.4357)">
        <path d="M335.448,8.828L335.448,88.276C335.448,127.279 303.83,158.897 264.828,158.897L247.172,158.897C208.202,158.819 176.629,127.246 176.552,88.276L176.552,8.828C176.552,3.952 180.504,0 185.379,0L326.621,0C331.496,0 335.448,3.952 335.448,8.828Z" style="fill:rgb(240,196,25);fill-rule:nonzero;"/>
    </g>
    <g id="Shape3" serif:id="Shape" transform="matrix(0.608499,0,0,0.608499,-8.13792,72.4357)">
        <path d="M247.172,194.207L264.828,194.207C289.204,194.207 308.966,213.968 308.966,238.345C308.966,243.22 305.013,247.172 300.138,247.172L211.862,247.172C206.987,247.172 203.034,243.22 203.034,238.345C203.034,213.968 222.796,194.207 247.172,194.207Z" style="fill:rgb(240,196,25);fill-rule:nonzero;"/>
    </g>
</svg>
