<?xml version="1.0" encoding="UTF-8" standalone="no"?>
<!DOCTYPE svg PUBLIC "-//W3C//DTD SVG 1.1//EN" "http://www.w3.org/Graphics/SVG/1.1/DTD/svg11.dtd">
<svg width="100%" height="100%" viewBox="0 0 296 296" version="1.1" xmlns="http://www.w3.org/2000/svg" xmlns:xlink="http://www.w3.org/1999/xlink" xml:space="preserve" xmlns:serif="http://www.serif.com/" style="fill-rule:evenodd;clip-rule:evenodd;stroke-linejoin:round;stroke-miterlimit:2;">
    <g transform="matrix(0.430382,0,0,0.430382,-55.6921,-59.825)">
        <path d="M503.615,816.942C484.249,827.796 460.632,827.796 441.267,816.942C381.534,783.465 251.492,710.583 190.667,676.494C170.541,665.214 158.077,643.942 158.077,620.87L158.077,343.217C158.077,320.145 170.541,298.873 190.667,287.593C251.492,253.504 381.534,180.622 441.267,147.145C460.632,136.291 484.249,136.291 503.615,147.145C563.348,180.622 693.39,253.504 754.215,287.593C774.341,298.873 786.804,320.145 786.804,343.217L786.804,620.87C786.804,643.942 774.341,665.214 754.215,676.494C693.39,710.583 563.348,783.465 503.615,816.942Z" style="fill:rgb(153,157,253);"/>
    </g>
    <g transform="matrix(0.430382,0,0,0.430382,-55.6921,-59.825)">
        <path d="M786.751,340.625C786.786,341.485 786.804,342.349 786.804,343.217L786.804,620.87C786.804,643.942 774.341,665.214 754.215,676.494C693.39,710.583 563.348,783.465 503.615,816.942C484.249,827.796 460.632,827.796 441.267,816.942C381.534,783.465 251.492,710.583 190.667,676.494C179.62,670.302 170.881,661.1 165.245,650.241C499.72,601.691 696.984,437.277 786.751,340.625Z" style="fill:rgb(132,86,255);"/>
    </g>
    <g transform="matrix(0.676725,0,0,0.676725,-98.7553,69.5931)">
        <path d="M345.825,202.411C351.005,198.762 357.922,198.761 363.101,202.411L402.732,230.327L428.81,211.957L369.052,152.198L369.052,103.745L443.873,72.221C449.601,69.808 453.247,64.112 453.041,57.9C452.834,51.688 448.818,46.247 442.943,44.219L369.052,18.71L369.052,15.327C369.052,7.043 362.336,0.327 354.052,0.327C345.768,0.327 339.052,7.043 339.052,15.327L339.052,152.496L279.702,211.655L306.204,230.325L345.825,202.411Z" style="fill:rgb(37,37,37);fill-rule:nonzero;"/>
    </g>
</svg>
