<?xml version="1.0" encoding="UTF-8" standalone="no"?>
<!DOCTYPE svg PUBLIC "-//W3C//DTD SVG 1.1//EN" "http://www.w3.org/Graphics/SVG/1.1/DTD/svg11.dtd">
<svg width="100%" height="100%" viewBox="0 0 296 296" version="1.1" xmlns="http://www.w3.org/2000/svg" xmlns:xlink="http://www.w3.org/1999/xlink" xml:space="preserve" xmlns:serif="http://www.serif.com/" style="fill-rule:evenodd;clip-rule:evenodd;stroke-linejoin:round;stroke-miterlimit:2;">
    <g transform="matrix(0.430382,0,0,0.430382,-55.6921,-59.825)">
        <path d="M503.615,816.942C484.249,827.796 460.632,827.796 441.267,816.942C381.534,783.465 251.492,710.583 190.667,676.494C170.541,665.214 158.077,643.942 158.077,620.87L158.077,343.217C158.077,320.145 170.541,298.873 190.667,287.593C251.492,253.504 381.534,180.622 441.267,147.145C460.632,136.291 484.249,136.291 503.615,147.145C563.348,180.622 693.39,253.504 754.215,287.593C774.341,298.873 786.804,320.145 786.804,343.217L786.804,620.87C786.804,643.942 774.341,665.214 754.215,676.494C693.39,710.583 563.348,783.465 503.615,816.942Z" style="fill:rgb(255,82,82);"/>
    </g>
    <g transform="matrix(0.430382,0,0,0.430382,-55.6921,-59.825)">
        <path d="M786.751,340.625C786.786,341.485 786.804,342.349 786.804,343.217L786.804,620.87C786.804,643.942 774.341,665.214 754.215,676.494C693.39,710.583 563.348,783.465 503.615,816.942C484.249,827.796 460.632,827.796 441.267,816.942C381.534,783.465 251.492,710.583 190.667,676.494C179.62,670.302 170.881,661.1 165.245,650.241C499.72,601.691 696.984,437.277 786.751,340.625Z" style="fill:rgb(231,96,123);"/>
        <g transform="matrix(2.32352,0,0,2.32352,42.0449,91.5429)">
            <path d="M184.812,75.869C185.089,75.017 185.882,74.441 186.777,74.441C187.672,74.441 188.465,75.017 188.742,75.869C193.494,90.495 205.404,127.151 207.902,134.837C208.178,135.689 208.972,136.265 209.867,136.265C217.948,136.265 256.491,136.265 271.87,136.265C272.765,136.265 273.558,136.841 273.835,137.692C274.111,138.543 273.808,139.476 273.084,140.002C260.642,149.042 229.461,171.696 222.922,176.447C222.198,176.973 221.895,177.905 222.172,178.756C224.669,186.443 236.58,223.098 241.332,237.725C241.609,238.576 241.306,239.509 240.582,240.035C239.858,240.561 238.877,240.561 238.153,240.035C225.711,230.995 194.53,208.34 187.991,203.59C187.267,203.064 186.287,203.064 185.563,203.59C179.024,208.34 147.843,230.995 135.401,240.035C134.677,240.561 133.696,240.561 132.972,240.035C132.248,239.509 131.945,238.576 132.222,237.725C136.974,223.098 148.885,186.443 151.382,178.756C151.659,177.905 151.356,176.973 150.632,176.447C144.093,171.696 112.912,149.042 100.47,140.002C99.746,139.476 99.443,138.543 99.719,137.692C99.996,136.841 100.789,136.265 101.684,136.265C117.063,136.265 155.606,136.265 163.687,136.265C164.582,136.265 165.376,135.689 165.652,134.837C168.15,127.151 180.06,90.495 184.812,75.869Z" style="fill:rgb(10,10,10);"/>
        </g>
    </g>
</svg>
