<?xml version="1.0" encoding="UTF-8" standalone="no"?>
<!DOCTYPE svg PUBLIC "-//W3C//DTD SVG 1.1//EN" "http://www.w3.org/Graphics/SVG/1.1/DTD/svg11.dtd">
<svg width="100%" height="100%" viewBox="0 0 945 945" version="1.1" xmlns="http://www.w3.org/2000/svg" xmlns:xlink="http://www.w3.org/1999/xlink" xml:space="preserve" xmlns:serif="http://www.serif.com/" style="fill-rule:evenodd;clip-rule:evenodd;stroke-linejoin:round;stroke-miterlimit:2;">
    <path d="M503.615,816.942C484.249,827.796 460.632,827.796 441.267,816.942C381.534,783.465 251.492,710.583 190.667,676.494C170.541,665.214 158.077,643.942 158.077,620.87L158.077,343.217C158.077,320.145 170.541,298.873 190.667,287.593C251.492,253.504 381.534,180.622 441.267,147.145C460.632,136.291 484.249,136.291 503.615,147.145C563.348,180.622 693.39,253.504 754.215,287.593C774.341,298.873 786.804,320.145 786.804,343.217L786.804,620.87C786.804,643.942 774.341,665.214 754.215,676.494C693.39,710.583 563.348,783.465 503.615,816.942ZM634.271,537.386L634.271,519.222L652.434,519.222L652.434,537.386L634.271,537.386ZM292.448,537.386L292.448,407.496L386.365,407.496L386.365,422.824L309.636,422.824L309.636,462.606L381.492,462.606L381.492,477.846L309.636,477.846L309.636,522.058L389.377,522.058L389.377,537.386L292.448,537.386ZM534.152,537.386L534.152,407.496L583.148,407.496C591.772,407.496 598.358,407.91 602.906,408.737C609.285,409.8 614.631,411.823 618.943,414.806C623.255,417.789 626.725,421.968 629.353,427.343C631.982,432.718 633.296,438.625 633.296,445.063C633.296,456.109 629.782,465.456 622.753,473.105C615.724,480.755 603.024,484.579 584.654,484.579L551.34,484.579L551.34,537.386L534.152,537.386ZM399.921,537.386L450.158,469.694L405.857,407.496L426.324,407.496L449.892,440.81C454.795,447.721 458.28,453.037 460.347,456.759C463.241,452.033 466.667,447.101 470.625,441.962L496.762,407.496L515.457,407.496L469.827,468.72L519.001,537.386L497.737,537.386L465.043,491.047C463.212,488.389 461.322,485.495 459.372,482.364C456.478,487.09 454.411,490.338 453.17,492.11L420.565,537.386L399.921,537.386ZM551.34,469.251L584.92,469.251C596.025,469.251 603.91,467.184 608.576,463.049C613.243,458.915 615.576,453.096 615.576,445.595C615.576,440.161 614.203,435.509 611.456,431.64C608.709,427.771 605.091,425.217 600.602,423.976C597.708,423.208 592.362,422.824 584.566,422.824L551.34,422.824L551.34,469.251Z" style="fill:rgb(157,255,176);"/>
</svg>
