<?xml version="1.0" encoding="UTF-8" standalone="no"?>
<!DOCTYPE svg PUBLIC "-//W3C//DTD SVG 1.1//EN" "http://www.w3.org/Graphics/SVG/1.1/DTD/svg11.dtd">
<svg width="100%" height="100%" viewBox="0 0 945 945" version="1.1" xmlns="http://www.w3.org/2000/svg" xmlns:xlink="http://www.w3.org/1999/xlink" xml:space="preserve" xmlns:serif="http://www.serif.com/" style="fill-rule:evenodd;clip-rule:evenodd;stroke-linejoin:round;stroke-miterlimit:2;">
    <path d="M503.615,816.942C484.249,827.796 460.632,827.796 441.267,816.942C381.534,783.465 251.492,710.583 190.667,676.494C170.541,665.214 158.077,643.942 158.077,620.87L158.077,343.217C158.077,320.145 170.541,298.873 190.667,287.593C251.492,253.504 381.534,180.622 441.267,147.145C460.632,136.291 484.249,136.291 503.615,147.145C563.348,180.622 693.39,253.504 754.215,287.593C774.341,298.873 786.804,320.145 786.804,343.217L786.804,620.87C786.804,643.942 774.341,665.214 754.215,676.494C693.39,710.583 563.348,783.465 503.615,816.942ZM453.436,668.715L411.894,668.715L411.894,403.996C401.892,413.536 388.776,423.075 372.543,432.615C356.311,442.154 341.733,449.309 328.808,454.078L328.808,413.92C352.041,402.996 372.351,389.764 389.737,374.224C407.124,358.684 419.433,343.606 426.664,328.989L453.436,328.989L453.436,668.715ZM496.95,441.601L513.049,439.069C513.953,445.52 516.47,450.464 520.6,453.901C524.731,457.337 530.504,459.056 537.92,459.056C545.396,459.056 550.943,457.533 554.561,454.489C558.178,451.444 559.987,447.871 559.987,443.771C559.987,440.094 558.389,437.199 555.194,435.089C552.963,433.642 547.416,431.803 538.553,429.572C526.615,426.558 518.339,423.95 513.727,421.749C509.115,419.549 505.618,416.504 503.236,412.615C500.854,408.726 499.664,404.43 499.664,399.727C499.664,395.446 500.643,391.482 502.603,387.834C504.562,384.186 507.23,381.157 510.607,378.745C513.139,376.876 516.591,375.293 520.962,373.997C525.334,372.701 530.021,372.052 535.026,372.052C542.562,372.052 549.18,373.138 554.877,375.308C560.575,377.479 564.78,380.418 567.494,384.126C570.207,387.834 572.076,392.793 573.101,399.004L557.183,401.174C556.46,396.23 554.365,392.371 550.898,389.598C547.431,386.824 542.532,385.438 536.201,385.438C528.725,385.438 523.389,386.674 520.193,389.146C516.998,391.618 515.4,394.512 515.4,397.828C515.4,399.938 516.063,401.837 517.39,403.526C518.716,405.274 520.796,406.721 523.63,407.867C525.258,408.47 530.051,409.856 538.01,412.027C549.526,415.102 557.56,417.619 562.112,419.579C566.665,421.538 570.237,424.387 572.83,428.125C575.422,431.863 576.719,436.506 576.719,442.053C576.719,447.479 575.136,452.589 571.97,457.383C568.805,462.176 564.238,465.884 558.269,468.507C552.3,471.13 545.547,472.441 538.01,472.441C525.529,472.441 516.018,469.848 509.476,464.663C502.934,459.478 498.759,451.79 496.95,441.601ZM631.616,455.71L633.967,470.09C629.385,471.054 625.285,471.537 621.667,471.537C615.759,471.537 611.176,470.602 607.92,468.733C604.665,466.864 602.373,464.407 601.047,461.362C599.72,458.317 599.057,451.911 599.057,442.144L599.057,386.885L587.119,386.885L587.119,374.223L599.057,374.223L599.057,350.437L615.246,340.67L615.246,374.223L631.616,374.223L631.616,386.885L615.246,386.885L615.246,443.048C615.246,447.69 615.532,450.675 616.105,452.001C616.678,453.328 617.613,454.383 618.909,455.167C620.205,455.951 622.059,456.343 624.471,456.343C626.28,456.343 628.661,456.132 631.616,455.71Z" style="fill:rgb(218,218,218);"/>
</svg>
