<?xml version="1.0" encoding="UTF-8" standalone="no"?>
<!DOCTYPE svg PUBLIC "-//W3C//DTD SVG 1.1//EN" "http://www.w3.org/Graphics/SVG/1.1/DTD/svg11.dtd">
<svg width="100%" height="100%" viewBox="0 0 945 945" version="1.1" xmlns="http://www.w3.org/2000/svg" xmlns:xlink="http://www.w3.org/1999/xlink" xml:space="preserve" xmlns:serif="http://www.serif.com/" style="fill-rule:evenodd;clip-rule:evenodd;stroke-linejoin:round;stroke-miterlimit:2;">
    <path d="M503.615,816.942C484.249,827.796 460.632,827.796 441.267,816.942C381.534,783.465 251.492,710.583 190.667,676.494C170.541,665.214 158.077,643.942 158.077,620.87L158.077,343.217C158.077,320.145 170.541,298.873 190.667,287.593C251.492,253.504 381.534,180.622 441.267,147.145C460.632,136.291 484.249,136.291 503.615,147.145C563.348,180.622 693.39,253.504 754.215,287.593C774.341,298.873 786.804,320.145 786.804,343.217L786.804,620.87C786.804,643.942 774.341,665.214 754.215,676.494C693.39,710.583 563.348,783.465 503.615,816.942Z" style="fill:white;"/>
</svg>
