<?xml version="1.0" encoding="UTF-8" standalone="no"?>
<!DOCTYPE svg PUBLIC "-//W3C//DTD SVG 1.1//EN" "http://www.w3.org/Graphics/SVG/1.1/DTD/svg11.dtd">
<svg width="100%" height="100%" viewBox="0 0 945 945" version="1.1" xmlns="http://www.w3.org/2000/svg" xmlns:xlink="http://www.w3.org/1999/xlink" xml:space="preserve" xmlns:serif="http://www.serif.com/" style="fill-rule:evenodd;clip-rule:evenodd;stroke-linejoin:round;stroke-miterlimit:2;">
    <path d="M503.615,816.942C484.249,827.796 460.632,827.796 441.267,816.942C381.534,783.465 251.492,710.583 190.667,676.494C170.541,665.214 158.077,643.942 158.077,620.87L158.077,343.217C158.077,320.145 170.541,298.873 190.667,287.593C251.492,253.504 381.534,180.622 441.267,147.145C460.632,136.291 484.249,136.291 503.615,147.145C563.348,180.622 693.39,253.504 754.215,287.593C774.341,298.873 786.804,320.145 786.804,343.217L786.804,620.87C786.804,643.942 774.341,665.214 754.215,676.494C693.39,710.583 563.348,783.465 503.615,816.942ZM673.61,537.386L657.661,537.386L657.661,435.76C653.822,439.422 648.787,443.084 642.555,446.747C636.323,450.409 630.727,453.155 625.765,454.987L625.765,439.57C634.684,435.376 642.481,430.296 649.156,424.331C655.83,418.365 660.556,412.576 663.332,406.965L673.61,406.965L673.61,537.386ZM396.997,537.386L361.202,443.291L378.037,443.291L398.238,499.641C400.423,505.725 402.431,512.046 404.262,518.602C405.68,513.64 407.659,507.675 410.199,500.705L431.109,443.291L447.5,443.291L411.882,537.386L396.997,537.386ZM271.272,537.386L271.272,407.496L288.461,407.496L288.461,522.058L352.431,522.058L352.431,537.386L271.272,537.386ZM545.493,516.387L545.493,480.769L510.141,480.769L510.141,465.884L545.493,465.884L545.493,430.533L560.555,430.533L560.555,465.884L595.907,465.884L595.907,480.769L560.555,480.769L560.555,516.387L545.493,516.387Z" style="fill:rgb(255,157,248);"/>
</svg>
