<?xml version="1.0" encoding="UTF-8" standalone="no"?>
<!DOCTYPE svg PUBLIC "-//W3C//DTD SVG 1.1//EN" "http://www.w3.org/Graphics/SVG/1.1/DTD/svg11.dtd">
<svg width="100%" height="100%" viewBox="0 0 296 296" version="1.1" xmlns="http://www.w3.org/2000/svg" xmlns:xlink="http://www.w3.org/1999/xlink" xml:space="preserve" xmlns:serif="http://www.serif.com/" style="fill-rule:evenodd;clip-rule:evenodd;stroke-linejoin:round;stroke-miterlimit:2;">
    <g transform="matrix(0.676725,0,0,0.676725,-98.7553,69.5931)">
        <g transform="matrix(1.47771,0,0,1.47771,145.931,-102.838)">
            <path d="M161.055,291.772C152.72,296.443 142.556,296.443 134.221,291.772C108.513,277.364 52.546,245.997 26.368,231.326C17.706,226.471 12.341,217.316 12.341,207.386L12.341,87.889C12.341,77.96 17.706,68.805 26.368,63.95C52.546,49.279 108.513,17.911 134.221,3.504C142.556,-1.168 152.72,-1.168 161.055,3.504C186.763,17.911 242.73,49.279 268.908,63.95C277.57,68.805 282.934,77.96 282.934,87.889L282.934,207.386C282.934,217.316 277.57,226.471 268.908,231.326C242.73,245.997 186.763,277.364 161.055,291.772ZM124.8,187.829L124.8,108.171L154.848,108.171C160.137,108.171 164.176,108.425 166.965,108.932C170.877,109.584 174.155,110.825 176.8,112.654C179.444,114.483 181.572,117.046 183.184,120.343C184.796,123.639 185.602,127.262 185.602,131.21C185.602,137.984 183.447,143.716 179.136,148.408C174.826,153.099 167.037,155.444 155.772,155.444L135.341,155.444L135.341,187.829L124.8,187.829ZM42.48,187.829L73.288,146.316L46.12,108.171L58.672,108.171L73.125,128.602C76.132,132.84 78.269,136.1 79.537,138.382C81.312,135.484 83.413,132.46 85.84,129.308L101.87,108.171L113.335,108.171L85.351,145.718L115.508,187.829L102.467,187.829L82.417,159.411C81.294,157.781 80.135,156.006 78.94,154.086C77.165,156.984 75.897,158.976 75.136,160.063L55.14,187.829L42.48,187.829ZM218.313,174.951L218.313,153.108L196.633,153.108L196.633,143.979L218.313,143.979L218.313,122.299L227.55,122.299L227.55,143.979L249.231,143.979L249.231,153.108L227.55,153.108L227.55,174.951L218.313,174.951ZM135.341,146.044L155.935,146.044C162.745,146.044 167.581,144.776 170.442,142.24C173.304,139.705 174.735,136.137 174.735,131.536C174.735,128.203 173.893,125.351 172.208,122.978C170.524,120.605 168.305,119.039 165.552,118.278C163.777,117.807 160.499,117.571 155.717,117.571L135.341,117.571L135.341,146.044Z" style="fill:rgb(148,106,231);"/>
        </g>
        <g transform="matrix(1.47771,0,0,1.47771,145.931,-102.838)">
            <path d="M202.023,153.108L218.313,153.108L218.313,174.951L227.55,174.951L227.55,153.108L249.231,153.108L249.231,143.979L227.55,143.979L227.55,135.777C251.596,118.143 269.884,100.8 282.911,86.774C282.926,87.144 282.934,87.516 282.934,87.889L282.934,207.386C282.934,217.316 277.57,226.471 268.908,231.326C242.73,245.997 186.763,277.364 161.055,291.772C152.72,296.443 142.556,296.443 134.221,291.772C108.513,277.364 52.546,245.997 26.368,231.326C21.613,228.661 17.852,224.701 15.426,220.027C60.858,213.433 100.407,201.871 134.473,187.829L135.341,187.829L135.341,187.47C160.523,177.03 182.697,165.238 202.023,153.108ZM218.313,143.979L215.961,143.979L216.593,143.547C216.891,143.343 217.188,143.138 217.485,142.934L218.313,142.362L218.313,143.979Z" style="fill:rgb(128,91,201);"/>
        </g>
    </g>
</svg>
